<svg xmlns="http://www.w3.org/2000/svg" width="24" height="24" viewBox="0 0 24 24">
  <g id="Filter" transform="translate(-13 -7)">
    <g id="Group_1039" data-name="Group 1039">
      <g id="Group_977" data-name="Group 977" transform="translate(13 7)">
        <rect id="Rectangle_5" data-name="Rectangle 5" width="24" height="24" fill="#f2f2f2" opacity="0"/>
        <g id="Group" transform="translate(2.636 5.591)">
          <path id="Vector" d="M0,0H3.789" transform="translate(14.94 2.27)" fill="none" stroke="#fff" stroke-linecap="round" stroke-linejoin="round" stroke-miterlimit="10" stroke-width="1.3" stroke-dasharray="0 0"/>
          <path id="Vector-2" data-name="Vector" d="M0,0H7.374" transform="translate(0 2.27)" fill="none" stroke="#fff" stroke-linecap="round" stroke-linejoin="round" stroke-miterlimit="10" stroke-width="1.3" stroke-dasharray="0 0"/>
          <path id="Vector-3" data-name="Vector" d="M3.367,4.539A1.181,1.181,0,0,0,4.54,3.357V1.182A1.181,1.181,0,0,0,3.367,0H1.173A1.181,1.181,0,0,0,0,1.182V3.357A1.181,1.181,0,0,0,1.173,4.539Z" transform="translate(9.803)" fill="none" stroke="#fff" stroke-linecap="round" stroke-linejoin="round" stroke-miterlimit="10" stroke-width="1.3" stroke-dasharray="0 0"/>
          <path id="Vector-4" data-name="Vector" d="M3.789,0H0" transform="translate(0 11.548)" fill="none" stroke="#fff" stroke-linecap="round" stroke-linejoin="round" stroke-miterlimit="10" stroke-width="1.3" stroke-dasharray="0 0"/>
          <path id="Vector-5" data-name="Vector" d="M7.374,0H0" transform="translate(11.354 11.548)" fill="none" stroke="#fff" stroke-linecap="round" stroke-linejoin="round" stroke-miterlimit="10" stroke-width="1.3" stroke-dasharray="0 0"/>
          <path id="Vector-6" data-name="Vector" d="M1.173,4.527A1.181,1.181,0,0,1,0,3.345V1.182A1.181,1.181,0,0,1,1.173,0H3.367A1.181,1.181,0,0,1,4.54,1.182V3.357a1.171,1.171,0,0,1-1.173,1.17Z" transform="translate(4.005 9.291)" fill="none" stroke="#fff" stroke-linecap="round" stroke-linejoin="round" stroke-miterlimit="10" stroke-width="1.3" stroke-dasharray="0 0"/>
        </g>
      </g>
    </g>
  </g>
</svg>
